<svg width="47" height="64" viewBox="0 0 47 64" fill="none" xmlns="http://www.w3.org/2000/svg">
<g clip-path="url(#clip0_103_1001)">
<path fill-rule="evenodd" clip-rule="evenodd" d="M22.28 44.31L22.5 44.49C25.22 46.82 28.02 48.49 30.86 49.51L42.88 48.82C43.64 48.78 44.13 47.99 43.83 47.29L34.98 26.48C31.97 25.92 28.99 24.4 26.13 21.95C24.86 20.87 23.58 19.92 22.28 19.12V44.31ZM8.45996 39.93C12.3 39.27 16.15 40.14 19.86 42.52C19.42 37.62 19.44 30.01 20.75 18.24C19.35 17.5 17.94 16.93 16.52 16.52L8.46996 39.93H8.45996Z" fill="#339999"/>
<path fill-rule="evenodd" clip-rule="evenodd" d="M16.4102 16.82C17.8402 17.37 19.2502 18.15 20.6502 19.15C20.8102 17.7 20.9802 16.19 21.1802 14.61C21.2602 13.92 22.2802 13.98 22.2802 14.67V20.43C22.4502 20.57 22.6102 20.72 22.7702 20.86C26.8102 24.51 31.0302 26.63 35.3002 27.22L24.0002 0.67C23.8102 0.22 23.4002 0 22.9902 0C22.5502 0 22.1102 0.25 21.9402 0.74L16.4102 16.82Z" fill="#FF9900"/>
<path fill-rule="evenodd" clip-rule="evenodd" d="M5.1298 52.87C10.1598 49.39 15.5298 49.51 19.2698 53.21V53.26L5.1298 52.86V52.87ZM33.6498 49.35C31.0098 48.55 28.4098 46.9 25.8998 44.41C24.7098 43.23 23.4998 42.2 22.2798 41.31V49.15C22.2798 49.5 21.9998 49.71 21.7198 49.71C21.5198 49.71 21.3098 49.6 21.2198 49.36C20.5998 47.78 19.8998 44.88 19.6798 39.65C16.2898 37.78 12.8298 37.01 9.3598 37.35L4.0298 52.85L1.1498 52.77C0.309796 52.75 -0.250204 53.63 0.139796 54.38L4.2098 62.33C4.3798 62.65 4.6898 62.87 5.0398 62.92C20.3098 65.09 33.8198 63.98 45.7498 59.96C46.1998 59.81 46.4998 59.38 46.4998 58.91V55.12C46.4998 54.52 46.0198 54.03 45.4298 54.02L33.5798 53.69C33.4098 52.87 32.6798 52.24 31.8098 52.24H25.6698V50.87C25.6698 50.29 26.1298 49.8 26.7098 49.77L33.6698 49.37L33.6498 49.35ZM43.7298 48.32C43.3598 48.51 42.9998 48.68 42.6298 48.83H42.8698C43.2398 48.79 43.5498 48.6 43.7298 48.32Z" fill="#996698"/>
</g>
<defs>
<clipPath id="clip0_103_1001">
<rect width="46.49" height="64" fill="white"/>
</clipPath>
</defs>
</svg>
