<svg width="64" height="64" viewBox="0 0 64 64" fill="none" xmlns="http://www.w3.org/2000/svg">
<g clip-path="url(#clip0_103_1025)">
<path fill-rule="evenodd" clip-rule="evenodd" d="M36.9 46.64C41.39 48.72 46.01 49.14 50.59 47.87L50.28 47.21C51.47 45.78 52.49 44.21 53.33 42.52L61.11 41.79C62.02 41.7 62.76 41.03 62.92 40.13L63.92 34.78V33.79C63.78 33.14 63.31 32.58 62.64 32.34L55.68 29.82C55.51 27.92 55.11 26.09 54.52 24.35L57.93 20.23L52.79 22.82C50.39 24.03 47.97 24.63 45.55 24.62C46.74 26.81 47.42 29.32 47.42 32C47.42 38.81 43.01 44.59 36.89 46.64M0 29.44V30.02C0.09 30.76 0.59 31.4 1.32 31.67L8.28 34.19C8.45 36.09 8.85 37.92 9.44 39.66L8.19 41.17L11.66 39.42C13.63 38.42 15.62 37.84 17.61 37.67C16.92 35.92 16.54 34 16.54 32C16.54 24.24 22.26 17.82 29.71 16.73C24.18 13.47 18.41 12.79 12.71 14.72L13.68 16.8C12.49 18.23 11.47 19.8 10.64 21.49L2.85 22.22C1.94 22.31 1.2 22.98 1.03 23.88L0.02 29.37V29.44H0Z" fill="#339999"/>
<path fill-rule="evenodd" clip-rule="evenodd" d="M12.9202 15.15C18.1202 12.76 23.4302 13.39 28.4602 16.96C29.5902 16.7 30.7702 16.56 31.9802 16.56C38.1002 16.56 43.3902 20.12 45.8902 25.29C48.9402 25.25 51.9902 24.43 55.0102 22.82L56.3702 22.1L59.4902 18.33C60.0702 17.63 60.1202 16.63 59.6002 15.87L56.4302 11.25C55.8702 10.43 54.7902 10.13 53.8802 10.56L47.1702 13.7C45.7402 12.51 44.1702 11.49 42.4802 10.65L41.7502 2.87C41.6602 1.96 40.9902 1.22 40.0902 1.06L34.6102 0.03C34.4802 0.01 34.3602 0 34.2302 0C33.3902 0 32.6102 0.52 32.3102 1.34L29.7902 8.3C27.8902 8.47 26.0602 8.87 24.3202 9.46L18.3002 4.47C17.6002 3.89 16.6002 3.84 15.8402 4.36L11.2202 7.53C10.4002 8.09 10.1002 9.17 10.5302 10.07L12.9002 15.14L12.9202 15.15Z" fill="#FF9900"/>
<path fill-rule="evenodd" clip-rule="evenodd" d="M50.7299 46.65C46.6699 48.41 42.5499 48.17 38.5699 45.96C36.5699 46.91 34.3399 47.43 31.9799 47.43C24.5799 47.43 18.3899 42.22 16.8899 35.27C14.4199 35.57 11.9399 36.44 9.48991 37.87L9.00991 38.18C9.13991 38.67 9.28991 39.16 9.44991 39.64L4.45991 45.65C3.87991 46.35 3.82991 47.35 4.34991 48.11L7.51991 52.73C8.07991 53.55 9.15991 53.85 10.0599 53.42L16.7699 50.28C18.1999 51.47 19.7699 52.49 21.4599 53.33L22.1899 61.11C22.2799 62.02 22.9499 62.76 23.8499 62.92L29.3599 63.95C30.3399 64.13 31.3099 63.58 31.6499 62.64L34.1699 55.68C36.0699 55.51 37.8999 55.11 39.6399 54.52L45.6499 59.51C46.3499 60.09 47.3499 60.14 48.1099 59.62L52.7299 56.45C53.5499 55.89 53.8499 54.81 53.4199 53.91L50.2799 47.2C50.4299 47.02 50.5799 46.83 50.7299 46.64M63.0199 39.6L58.9399 41.98L61.1099 41.78C62.0199 41.69 62.7599 41.02 62.9199 40.12L63.0199 39.6Z" fill="#996698"/>
</g>
<defs>
<clipPath id="clip0_103_1025">
<rect width="63.93" height="64" fill="white"/>
</clipPath>
</defs>
</svg>
