<svg width="64" height="41" viewBox="0 0 64 41" fill="none" xmlns="http://www.w3.org/2000/svg">
<g clip-path="url(#clip0_103_993)">
<path fill-rule="evenodd" clip-rule="evenodd" d="M52.4798 16.79C52.4798 16.79 52.4198 16.82 52.4098 16.83L52.4798 16.79ZM0.00976562 9.12V10.24C0.0497656 10.29 0.109766 10.34 0.179766 10.38L6.94977 14.3L11.7298 11.75C18.0198 8.4 24.4998 9.48 30.4798 14.88C35.5398 19.45 40.8898 21.63 46.2498 21.39V19.86H46.4898L52.3698 16.83C52.3698 16.83 52.3798 16.83 52.3898 16.82C52.4598 16.82 52.6298 17.13 52.7198 19.92C53.1298 19.75 53.5398 19.57 53.9498 19.37C53.8898 17.72 53.7198 16.38 53.3198 16.34L63.3298 11.18C63.9598 10.85 63.8898 9.92 63.2098 9.7L33.2098 0.04C33.1298 0.01 33.0498 0 32.9698 0C32.8998 0 32.8298 0 32.7598 0.03L0.369766 8.91C0.219766 8.95 0.0997656 9.02 0.00976562 9.12Z" fill="#FF9900"/>
<path fill-rule="evenodd" clip-rule="evenodd" d="M53.8998 18.28L52.6898 18.89C52.7498 20.14 52.7898 22.15 52.7598 25.36C51.9298 25.58 51.3098 26.32 51.3098 27.22C51.3098 27.8 51.5698 28.31 51.9698 28.66L51.3898 32.2C51.3498 32.43 51.5198 32.64 51.7498 32.66L53.1898 32.8C53.4098 32.82 53.6098 32.66 53.6298 32.44L53.9798 29.01C54.6898 28.72 55.1898 28.03 55.1898 27.22C55.1898 26.41 54.6398 25.66 53.8698 25.4C53.9098 24.56 54.0998 20.68 53.9098 18.28M16.5698 33.89C21.2098 33.21 25.8498 34.77 30.2198 38.52C30.9498 39.15 31.6898 39.73 32.4398 40.26C37.9198 39.97 43.2998 38.16 46.0798 34.92C46.1998 34.78 46.2698 34.59 46.2698 34.4V20.73C42.0498 20.99 37.8398 19.39 33.8498 15.98C26.0898 9.32997 17.6698 7.99997 9.5198 12.12L6.2998 13.94L16.5698 19.89V33.91V33.89Z" fill="#339999"/>
<path fill-rule="evenodd" clip-rule="evenodd" d="M46.2598 34.48C41.9898 34.66 37.7298 33.6 33.6898 31.3C28.1898 28.18 22.3798 26.81 16.5698 27.22V34.43C16.5698 34.59 16.6098 34.75 16.6998 34.88C21.6698 42.21 40.0198 41.97 46.0798 34.9C46.1798 34.78 46.2398 34.63 46.2598 34.47" fill="#996698"/>
</g>
<defs>
<clipPath id="clip0_103_993">
<rect width="63.78" height="40.29" fill="white"/>
</clipPath>
</defs>
</svg>
