<svg width="36" height="60" viewBox="0 0 36 60" fill="none" xmlns="http://www.w3.org/2000/svg">
<path fill-rule="evenodd" clip-rule="evenodd" d="M8.27867 38.4C8.83688 38.5031 9.40455 38.6344 9.96277 38.8031V33.7781C10.6156 33.9375 11.2779 34.0406 11.9496 34.1156H11.8645V39.525C12.7728 39.9281 13.681 40.4344 14.5704 41.025V34.1906C15.1286 34.1625 15.6868 34.1063 16.2545 34.0219V42.2625C16.4248 42.4031 16.5951 42.5438 16.7654 42.6844C20.6161 45.9656 24.6466 47.8688 28.7149 48.375V25.7625C25.8103 25.2563 22.953 23.8219 20.1998 21.4781C15.4976 17.4844 10.5494 15.525 5.57275 15.6563V29.7563C5.57275 30.225 5.87551 30.6563 6.32965 30.8063C6.56618 30.8813 6.79325 30.9375 7.02032 31.0031H6.96356V32.0344C6.96356 32.4844 7.22847 32.8875 7.64476 33.0563C7.86237 33.1406 8.07998 33.2063 8.30705 33.2906H8.26921V38.4H8.27867Z" fill="#519597"/>
<path fill-rule="evenodd" clip-rule="evenodd" d="M5.57264 15.75C9.47067 15.5906 13.3498 17.1656 17.0302 20.475C20.8052 23.8594 24.7411 25.8469 28.7148 26.4281V9.5625L30.2759 8.4375C30.38 8.3625 30.3232 8.20312 30.2002 8.20312H29.6893V7.6125H30.2002C30.3232 7.6125 30.38 7.45312 30.2759 7.37812L28.7148 6.25313V5.46562C28.7148 5.00625 28.431 4.60313 28.0052 4.43437L16.7464 0.075C16.6139 0.028125 16.4814 0 16.3395 0C16.1598 0 15.9705 0.046875 15.8097 0.13125L13.4728 1.3875C13.1132 1.58438 12.8862 1.95938 12.8862 2.3625V3.16875C10.8047 3.21563 8.64754 3.51562 6.38631 4.125C5.90378 4.25625 5.57264 4.69688 5.57264 5.19375V11.1375C5.08065 11.4563 4.74951 12.0094 4.74951 12.6375C4.74951 13.2656 5.08065 13.8188 5.57264 14.1375V15.75Z" fill="#FF9900"/>
<path fill-rule="evenodd" clip-rule="evenodd" d="M28.7243 47.5875C25.7535 47.0438 22.811 45.375 19.9916 42.6C18.7616 41.3906 17.5222 40.35 16.2639 39.4688V53.4563H14.5798V38.3813C13.6809 37.8563 12.7821 37.4156 11.8739 37.0594V53.4563H9.97214V36.4313C9.41393 36.2813 8.85572 36.1594 8.28804 36.075V53.4563H1.89225C0.851511 53.4563 0 54.2906 0 55.3313V58.125C0 59.1563 0.851511 60 1.89225 60H34.1078C35.158 60 36 59.1563 36 58.125V55.3313C36 54.3 35.1485 53.4563 34.1078 53.4563H28.7243V47.5875Z" fill="#996698"/>
</svg>
