<svg width="61" height="35" viewBox="0 0 61 35" fill="none" xmlns="http://www.w3.org/2000/svg">
<g clip-path="url(#clip0_111_1223)">
<path fill-rule="evenodd" clip-rule="evenodd" d="M52.9624 29.8535L60.1163 27.5098V20.9135L60.844 19.5716C60.9669 19.3448 60.8062 19.0802 60.551 19.0802H60.1069V18.5982L60.8346 17.2562C60.9574 17.0389 60.7968 16.7648 60.5416 16.7648H60.0974V16.7081C60.0974 16.1884 59.6722 15.7631 59.1524 15.7631H58.8783L59.1051 15.1016C59.1997 14.8181 59.0863 14.544 58.8689 14.3834C58.9728 14.2889 59.039 14.1471 59.039 13.9959C59.039 13.7029 58.7933 13.4572 58.5003 13.4572C58.2074 13.4572 57.9617 13.7029 57.9617 13.9959C57.9617 14.1471 58.0278 14.2889 58.1318 14.3834C57.905 14.5535 57.7916 14.8464 57.905 15.1299L58.1601 15.7631H56.9032V13.3533L52.9058 14.6669C52.9247 14.7519 52.9341 14.837 52.9341 14.9315V29.8535H52.9624ZM36.8024 30.5339C38.9287 31.0915 41.0834 31.3939 43.2475 31.4317V16.538C41.0834 16.4719 38.9193 16.075 36.8024 15.3378V30.5339ZM1.66618 28.9557L8.72556 26.631V14.9315C8.72556 11.6333 18.346 11.7562 18.346 14.9315V24.533C20.6329 24.5141 22.9105 24.8826 25.1407 25.6103V14.9315C25.1407 13.117 26.0385 11.8412 27.3427 11.0852C21.6063 9.16678 15.6432 9.14788 9.83125 11.0663L4.91709 12.8713V15.8387H3.63185L3.887 15.111C3.98151 14.837 3.8681 14.5535 3.65075 14.4023C3.7547 14.3078 3.82085 14.166 3.82085 14.0148C3.82085 13.7218 3.59404 13.4856 3.30108 13.4761L2.90417 13.6179C2.80022 13.7124 2.73407 13.8541 2.73407 14.0148C2.73407 14.1754 2.80022 14.3078 2.89472 14.4023C2.67736 14.5724 2.56396 14.8559 2.67736 15.1488L2.96087 15.8482H2.58286C2.11035 15.8482 1.74178 16.1978 1.66618 16.6514H1.22202C0.966859 16.6514 0.806203 16.9255 0.929057 17.1428L1.66618 18.4848V18.9668H1.22202C0.966859 18.9668 0.806203 19.2408 0.929057 19.4582L1.66618 20.8001V28.9746V28.9557Z" fill="#339999"/>
<path fill-rule="evenodd" clip-rule="evenodd" d="M58.2926 13.5045L58.406 13.4667C58.406 13.4667 58.3304 13.4856 58.2926 13.5045ZM4.92674 13.2871L11.9389 10.849C16.9003 9.11955 21.994 9.32745 26.8515 11.4065C30.0835 8.94944 36.8026 10.3292 36.8026 14.922V15.9521C38.929 16.5569 41.0836 16.8877 43.2477 16.9444V14.922C43.2477 11.3876 52.9627 11.8034 52.9627 14.922V15.3473L56.9318 13.9676V6.45456C57.4705 6.45456 57.9052 6.01985 57.9052 5.48118C57.9052 4.94251 57.4705 4.5078 56.9318 4.5078H40.0252L31.2364 0.0756025C31.1419 0.0283509 31.0379 0 30.934 0C30.83 0 30.7261 0.0189006 30.6316 0.0756025L21.7483 4.51725H4.75664C4.21797 4.51725 3.78326 4.95196 3.78326 5.49063C3.78326 6.0293 4.21797 6.46401 4.75664 6.46401H4.9362V13.2966L4.92674 13.2871ZM2.75317 14.0432L3.74546 13.7029C3.65095 13.5612 3.48085 13.4572 3.29184 13.4572C2.99888 13.4572 2.75317 13.6935 2.75317 13.9959V14.0432Z" fill="#FF9900"/>
<path fill-rule="evenodd" clip-rule="evenodd" d="M8.72566 25.0811L1.66628 28.1052V32.3295H1.83639C1.31662 32.3295 0.891357 32.7547 0.891357 33.2745V34.8055H10.852V34.2195C10.852 33.18 10.0015 32.3295 8.96192 32.3295H8.73511V25.0906L8.72566 25.0811ZM25.1503 23.966C22.9011 23.3139 20.633 22.9926 18.3555 23.002V32.32H18.9225C17.8736 32.32 17.0325 33.1706 17.0325 34.2101V34.796H26.7757V34.2101C26.7757 33.1706 25.9347 32.32 24.8857 32.32H25.1597V23.966H25.1503ZM43.2476 30.9497C41.0835 30.9025 38.9194 30.4583 36.8025 29.6267V32.32H37.0104C35.9709 32.32 35.1204 33.1706 35.1204 34.2101V34.796H44.4762V34.2101C44.4762 33.1706 43.6256 32.32 42.5861 32.32H43.2382V30.9497H43.2476ZM60.1164 25.9789L52.9625 28.71V32.3295H52.7357C51.6868 32.3295 50.8457 33.18 50.8457 34.2195V34.8055H60.8914V33.2745C60.8914 32.7547 60.4661 32.3295 59.9463 32.3295H60.1164V25.9883V25.9789Z" fill="#996698"/>
</g>
<defs>
<clipPath id="clip0_111_1223">
<rect width="60" height="34.796" fill="white" transform="translate(0.891357)"/>
</clipPath>
</defs>
</svg>
