<svg width="42" height="64" viewBox="0 0 42 64" fill="none" xmlns="http://www.w3.org/2000/svg">
<g clip-path="url(#clip0_103_1005)">
<path fill-rule="evenodd" clip-rule="evenodd" d="M18.1801 14.3C17.7201 14.18 17.2701 14.07 16.8101 13.99C16.8601 14.08 16.9201 14.16 16.9901 14.25C17.4401 14.44 17.8301 14.43 18.1801 14.31M24.2101 16.93C23.8901 16.73 23.5601 16.55 23.2401 16.37C23.3301 16.63 23.4801 16.86 23.8601 16.99C23.9901 16.99 24.1101 16.96 24.2201 16.93H24.2101ZM18.8401 38.8C20.7901 39.6 22.7201 40.8 24.5901 42.41C24.7201 42.52 24.8601 42.64 24.9901 42.75C25.9901 43.01 27.0501 43.14 28.1701 43.16C28.0101 43.74 28.0201 44.38 28.1501 45.06C29.4001 45.85 30.6601 46.51 31.9201 47.04L31.8501 45.73L32.0801 42.85C36.8901 41.69 40.9001 40.07 41.2801 36.39C41.2901 36.24 41.2801 36.09 41.2301 35.95C40.0601 32.31 38.0101 29.85 35.7601 27.64L34.8201 25.75L35.2101 23.94C32.8301 23.18 30.4801 21.83 28.2101 19.88C27.5301 19.3 26.8401 18.76 26.1501 18.25V18.35C24.6701 19.28 20.4101 19.6 19.4001 21.91H16.6601L15.1801 20.8C14.8601 20.56 14.4101 20.6 14.1301 20.88L13.4401 21.59L11.6301 21.35C10.9701 21.26 10.3801 21.77 10.3701 22.44C10.3701 23.54 10.9801 24.33 12.2601 24.79C13.2501 25.06 14.6401 25.17 16.4701 25.11C16.9401 24.92 17.4001 24.91 17.8501 25.11C18.5201 25.33 19.2701 25.46 20.1001 25.49C20.6301 25.66 20.9501 26.21 20.8001 26.75C20.1901 28.89 20.6301 31.15 21.2601 33.59C21.2901 33.7 21.3101 33.82 21.2901 33.93C21.1501 34.92 19.7401 35.81 18.9401 38.66C18.9101 38.71 18.8701 38.77 18.8301 38.83L18.8401 38.8Z" fill="#339999"/>
<path fill-rule="evenodd" clip-rule="evenodd" d="M16.97 14.22C17.17 14.27 17.36 14.33 17.56 14.39C18.85 14.48 19.58 12.88 20.38 12.58C21.35 12.72 22.69 13.29 22.37 14.01C22.07 14.32 22.2 14.64 22.46 14.96C23.5 15.54 22.83 16.62 23.86 16.99C24.46 16.96 24.83 16.61 25.05 16.04C25.85 16.35 26.17 17.16 26.17 18.33C25.87 18.52 25.44 18.69 24.96 18.85C28.24 21.79 31.63 23.73 35.08 24.66L36.43 18.33C37.68 15.42 38.19 13.23 38.09 11.63C38.07 11.28 37.67 11.09 37.38 11.29C36.75 11.74 36.26 12.99 35.79 14.36L35.57 14.34C35.04 14.29 34.56 14.64 34.45 15.16L33.89 17.93L32.32 20.61C30.76 18.56 29.32 19.29 28.99 18.32C28.52 15.73 30.03 12.15 31.99 9.54001C32.39 9.01001 33.17 8.98001 33.61 9.48001C33.94 9.85001 34.28 10.32 34.69 10.84C34.89 11.09 35.29 10.94 35.27 10.62C35.11 8.15001 34.91 5.85001 34.57 4.18001C34.51 3.89001 34.33 3.63001 34.08 3.48001C32.99 2.81001 31.99 2.23001 31.04 1.69001C30.93 1.63001 30.81 1.59001 30.68 1.57001C29.33 1.38001 28.22 0.93001 27.34 0.24001C27.14 0.0800098 26.91 0.0100098 26.67 0.0100098C26.33 0.0100098 26 0.17001 25.8 0.48001C25.06 1.61001 24.08 2.73001 22.93 4.11001H22.24C22.08 5.23001 20.7 5.90001 20.28 6.93001L20.57 8.72001L18.95 9.35001C17.69 9.84001 16.73 10.93 16.53 12.27C16.42 13.01 16.54 13.67 16.98 14.23" fill="#FF9900"/>
<path fill-rule="evenodd" clip-rule="evenodd" d="M31.8802 45.45C30.5702 44.62 29.2702 43.57 27.9902 42.31C25.3102 39.66 22.5602 37.74 19.7602 36.57C19.4702 37.12 19.1802 37.79 18.9502 38.62C17.7702 40.51 12.6002 44.38 7.89019 48.03C7.54019 48.3 7.28019 48.69 7.16019 49.12C6.75019 50.51 5.99019 51.13 4.87019 50.99C4.35019 50.92 3.86019 50.67 3.44019 50.36C2.77019 49.87 2.07019 49.43 1.33019 49.06C0.520185 48.65 -0.319815 49.55 0.120185 50.34L3.34019 56.03C3.59019 56.47 4.16019 56.61 4.59019 56.34L8.01019 54.16C8.25019 54.01 8.46019 53.81 8.62018 53.57C10.2302 51.19 16.6602 45.81 21.7002 41.3L21.6802 41.28C23.5202 42.52 25.7102 43.12 28.1802 43.17C27.9402 44.05 28.0902 45.05 28.4402 46.12C28.4902 46.28 28.5102 46.46 28.4802 46.63C27.8202 50.53 28.1502 55.81 29.5802 57.59C29.8402 57.92 29.8802 58.36 29.6802 58.73C29.4702 59.11 29.3002 59.56 29.1602 60.09L25.9002 62.94C25.4202 63.36 25.8002 64.15 26.4302 64.03C28.4302 63.65 30.3102 63.33 31.4802 63.46C32.6002 63.3 33.2702 62.12 32.8202 61.08L32.6702 60.73C32.7802 57.42 32.7502 54.71 32.3502 53.75C32.2902 53.6 32.2602 53.44 32.2502 53.27L31.8602 45.75L31.8802 45.49V45.45Z" fill="#996698"/>
</g>
<defs>
<clipPath id="clip0_103_1005">
<rect width="41.3" height="64" fill="white"/>
</clipPath>
</defs>
</svg>
