<svg width="64" height="45" viewBox="0 0 64 45" fill="none" xmlns="http://www.w3.org/2000/svg">
<g clip-path="url(#clip0_103_1013)">
<path fill-rule="evenodd" clip-rule="evenodd" d="M32.6299 10.53C32.3199 10.27 32.0199 10.03 31.7099 9.78999C31.7499 10.21 32.0999 10.53 32.5299 10.53H32.6299ZM7.13988 33.03L10.0699 31.52C16.5499 28.18 23.2299 29.26 29.3999 34.64C30.4999 35.6 31.6099 36.45 32.7299 37.2H35.1499C34.9499 37.57 34.7899 37.97 34.6799 38.39C38.0099 40.23 41.4099 41.15 44.8299 41.15C44.9699 40.68 45.0399 40.18 45.0399 39.66C45.0399 38.77 44.7999 37.94 44.3999 37.2H47.7799C47.3899 37.94 47.1399 38.76 47.1399 39.66C47.1399 40.12 47.1999 40.57 47.3099 40.99C49.6999 40.68 52.0999 39.91 54.4699 38.69L57.0999 37.34L57.0299 37.2H57.3699L63.8499 33.87L63.9799 20.72V8.16999L52.4599 14.09C52.0899 14.28 51.7199 14.46 51.3499 14.62V16.15H35.1999V12.61C34.4999 12.12 33.8099 11.58 33.1299 10.98L33.0999 10.95V16.16H23.9799V5.50999C22.5799 5.03999 21.1799 4.72999 19.7699 4.57999V16.15H12.9299C13.9899 16.15 14.8599 15.29 14.8599 14.22V13.16C14.8599 12.1 13.9999 11.23 12.9299 11.23H9.05988C7.99988 11.23 7.12988 12.09 7.12988 13.16V14.22C7.12988 15.28 7.98988 16.15 9.05988 16.15H9.23988V26.68H8.77988C7.86988 26.68 7.12988 27.42 7.12988 28.33V33.04L7.13988 33.03Z" fill="#339999"/>
<path fill-rule="evenodd" clip-rule="evenodd" d="M51.3701 15.68C52.4401 15.47 53.5101 15.22 54.5701 14.9L63.9401 12.16L64.0001 6.32H48.6901C48.2401 6.32 47.8701 6.69 47.8701 7.14V7.59C47.8701 8.05 48.2401 8.42 48.6901 8.42H51.3701V15.67V15.68ZM42.0901 16.15C44.0701 16.33 46.0701 16.33 48.0601 16.15H42.0901ZM33.1201 14.07C33.8201 14.33 34.5201 14.57 35.2301 14.79V10.53H35.8101C36.2701 10.53 36.6301 10.16 36.6301 9.7V9.25C36.6301 8.79 36.2601 8.43 35.8101 8.43H32.5501C32.0901 8.43 31.7201 8.8 31.7201 9.25V9.7C31.7201 10.16 32.0901 10.53 32.5501 10.53H33.1301V14.07H33.1201ZM19.7801 9.63C21.1901 9.76 22.6001 10.01 23.9901 10.38V4.21H23.7401C24.6501 4.21 25.3901 3.47 25.3901 2.56V1.65C25.3901 0.74 24.6501 0 23.7401 0H20.0201C19.1101 0 18.3701 0.74 18.3701 1.65V2.56C18.3701 3.47 19.1101 4.21 20.0201 4.21H19.7701V9.62L19.7801 9.63Z" fill="#FF9900"/>
<path fill-rule="evenodd" clip-rule="evenodd" d="M63.8101 39.62L63.9301 27.52L52.2901 32.4C45.8201 35.12 39.1301 34.23 32.9601 29.81C25.3801 24.39 17.2201 23.05 9.25012 25.91V26.67H8.79012C7.88012 26.67 7.14012 27.41 7.14012 28.32V33.69L0.410118 40.42C-0.469882 41.3 0.150118 42.82 1.40012 42.82H15.8401C16.4201 42.82 16.9401 42.47 17.1501 41.92C17.6601 40.58 19.1001 38.21 22.8001 38.24C22.6701 38.69 22.5801 39.16 22.5801 39.66C22.5801 42.57 24.9401 44.92 27.8501 44.92C30.7601 44.92 33.1101 42.56 33.1101 39.66C33.1101 38.77 32.8701 37.94 32.4701 37.2H35.1401C34.7501 37.94 34.5101 38.76 34.5101 39.66C34.5101 42.57 36.8701 44.92 39.7701 44.92C42.6701 44.92 45.0301 42.56 45.0301 39.66C45.0301 38.77 44.7901 37.94 44.3901 37.2H47.7701C47.3801 37.94 47.1301 38.76 47.1301 39.66C47.1301 42.57 49.4901 44.92 52.4001 44.92C55.3101 44.92 57.6601 42.56 57.6601 39.66C57.6601 38.77 57.4201 37.94 57.0301 37.2H59.0701V38.78C59.0701 39.84 59.9301 40.71 61.0001 40.71H62.0601C62.8201 40.71 63.4801 40.27 63.8001 39.62" fill="#996698"/>
</g>
<defs>
<clipPath id="clip0_103_1013">
<rect width="64" height="44.92" fill="white"/>
</clipPath>
</defs>
</svg>
