<svg width="57" height="64" viewBox="0 0 57 64" fill="none" xmlns="http://www.w3.org/2000/svg">
<g clip-path="url(#clip0_103_1017)">
<path fill-rule="evenodd" clip-rule="evenodd" d="M3.07977 45.4L5.96977 44C6.13977 41.73 5.90977 39.09 5.17977 35.93H8.45977V39.27C8.45977 39.97 9.05977 40.53 9.75977 40.47L14.4998 40.11V41.26C18.6998 41.03 22.8898 42.57 26.8598 45.84L27.1798 46.1V39.15L44.6898 37.81L49.3998 44.31C49.7998 44.85 50.5598 44.96 51.0998 44.56L56.2898 40.67C56.8698 40.24 56.9398 39.4 56.4398 38.87L52.5398 34.76C52.3298 34.54 52.2198 34.25 52.2198 33.95V33.04C52.2198 32.76 52.3198 32.49 52.4998 32.28L56.6098 27.47C57.0398 26.97 56.9898 26.23 56.4998 25.79L54.8598 24.32L49.2398 27.04C44.0498 29.56 38.7298 29.32 33.6598 26.39L27.1898 25.63V21.78C23.0598 19.2 18.7898 18.01 14.5098 18.23V24.15L9.81977 23.6C9.09976 23.52 8.46977 24.08 8.46977 24.8V28.08H4.98977C5.63977 25.21 5.88977 22.76 5.78977 20.64L2.69977 22.31C2.76977 24.16 3.03977 26.19 3.55977 28.11C1.56977 28.3 0.00976562 29.96 0.00976562 32C0.00976562 34.04 1.68977 35.83 3.78977 35.91C2.87977 39.23 2.69977 42.88 3.07977 45.4Z" fill="#339999"/>
<path fill-rule="evenodd" clip-rule="evenodd" d="M31.0599 26.07C37.6899 29.92 44.6599 30.26 51.4499 27.01L55.6299 25.01L52.2799 22C51.7399 21.51 50.9099 21.54 50.3999 22.05L44.6699 27.66L31.0499 26.07H31.0599ZM14.4899 18.83C18.7799 18.53 23.0599 20.04 27.1199 23.33L27.1799 23.37V6.34C27.1799 2.84 24.3399 0 20.8399 0C17.3399 0 14.4999 2.84 14.4999 6.34V18.83H14.4899ZM2.72989 23.2L5.78989 21.73C5.79989 20.27 5.66989 18.95 5.39989 17.75C5.11989 16.52 3.35989 16.48 3.04989 17.7C2.69989 19.11 2.57989 21.07 2.72989 23.2Z" fill="#FF9900"/>
<path fill-rule="evenodd" clip-rule="evenodd" d="M5.9899 41.52L5.9199 41.56L2.8999 43.4C2.9399 44.54 3.0699 45.57 3.2699 46.4C3.5699 47.62 5.3399 47.58 5.6199 46.35C5.9399 44.92 6.0799 43.33 5.9899 41.53M27.1699 43.19C21.2499 38.95 15.0399 37.94 8.8999 40.2C9.1299 40.39 9.4299 40.49 9.7499 40.47L14.4899 40.11V57.67C14.4899 61.17 17.3299 64.01 20.8299 64.01C24.3299 64.01 27.1699 61.17 27.1699 57.67V43.19Z" fill="#996698"/>
</g>
<defs>
<clipPath id="clip0_103_1017">
<rect width="56.88" height="64" fill="white"/>
</clipPath>
</defs>
</svg>
