<svg width="59" height="64" viewBox="0 0 59 64" fill="none" xmlns="http://www.w3.org/2000/svg">
<g clip-path="url(#clip0_103_1021)">
<path fill-rule="evenodd" clip-rule="evenodd" d="M16.1299 20.59C16.5899 20.51 17.0399 20.43 17.4999 20.35C17.2999 23.77 17.3699 27.6 17.5899 31.66C17.4499 31.7 17.3099 31.74 17.1799 31.78C16.3199 28.4 15.7699 24.81 16.1399 20.58M21.3599 19.83C21.7399 19.79 22.1199 19.75 22.4999 19.72V30.72C22.1199 30.76 21.7399 30.81 21.3799 30.87C21.0599 26.79 21.0099 23.06 21.3599 19.84V19.83ZM6.86991 43.46L9.37991 42.19C15.6599 39.01 22.1499 40.04 28.1299 45.16C33.8699 50.07 39.9599 52.08 46.0499 51.13V51.1H46.1699C46.1699 51.1 46.2499 51.1 46.2999 51.1L46.5099 51.06C47.0699 50.91 47.4899 50.4 47.4899 49.79V48.52C53.7599 42.26 51.7399 36.9 58.1599 34.13C58.6299 33.93 58.7199 33.28 58.2999 32.99C54.6199 30.47 50.0299 30.87 44.9999 32.66C44.8499 32.71 44.6899 32.71 44.5499 32.66C43.8399 32.38 43.0499 32.12 42.1799 31.88C42.5399 30.37 42.8399 28.88 43.0699 27.4C42.2599 27.39 41.4499 27.3 40.6499 27.16C40.4599 28.57 40.2299 29.97 39.9599 31.35L40.0599 31.39C39.9499 31.37 39.8499 31.35 39.7499 31.33C39.8299 29.86 39.8899 28.41 39.9299 27.01C38.6899 26.72 37.4499 26.26 36.2199 25.64C36.1799 27.28 36.0899 28.99 35.9399 30.77C35.6299 30.73 35.3099 30.7 34.9999 30.67V24.96C33.9099 24.31 32.8399 23.53 31.7799 22.63C31.0999 22.05 30.4099 21.5 29.7199 21V30.39C29.0699 30.39 28.4299 30.39 27.7999 30.39V19.71C25.7099 18.44 23.5799 17.53 21.4399 17C21.2399 17.03 21.0299 17.07 20.8299 17.1L20.5599 16.8C19.2199 16.53 17.8799 16.41 16.5299 16.42L17.4999 17.79C17.2199 17.86 16.9399 17.94 16.6499 18.02L14.9799 16.51C14.1999 16.58 13.4199 16.71 12.6499 16.88C12.6899 17.04 12.7799 17.19 12.9099 17.32L14.3099 18.71C14.1199 18.77 13.9199 18.83 13.7299 18.89L14.9599 20.56C14.8299 23.71 15.2499 27.86 15.8399 32.3C15.6199 32.4 15.4199 32.5 15.2199 32.6C15.0499 32.69 14.8399 32.7 14.6599 32.62C9.86991 30.59 5.11991 30.76 0.389909 32.95C-0.0800908 33.17 -0.130091 33.82 0.299909 34.1C5.91991 37.81 4.95991 39.49 6.86991 43.46Z" fill="#339999"/>
<path fill-rule="evenodd" clip-rule="evenodd" d="M20.86 17.08C23.21 17.77 25.53 19.07 27.78 20.98V19.45C28.42 19.44 29.06 19.43 29.7 19.43V22.64C31.43 24.05 33.2 25.19 34.98 26.05V19.66C35.33 19.69 35.67 19.7 36.02 19.73C36.22 21.82 36.26 24.12 36.17 26.58C37.4 27.09 38.64 27.46 39.89 27.71C39.97 25.04 39.97 22.5 39.85 20.16C40.29 20.22 40.73 20.3 41.16 20.36C41.12 22.89 40.89 25.38 40.54 27.83C41.34 27.96 42.14 28.03 42.95 28.05C43.37 25.58 43.6 23.15 43.64 20.75C43.64 20.75 43.65 20.75 43.66 20.75L44.21 19L45.34 17.38C45.67 16.91 45.53 16.26 45.04 15.96L44.56 15.67C44.15 15.42 43.62 15.5 43.29 15.86L41.43 17.97C41.19 17.9 40.95 17.83 40.7 17.76L41.68 16.03C42 15.47 41.71 14.76 41.1 14.58L39.81 14.2C39.44 14.09 39.04 14.2 38.78 14.49L36.64 16.91C36.41 16.87 36.19 16.85 35.96 16.81V13.68H32.02V6.09H32.38C32.87 6.09 33.27 5.69 33.27 5.19C33.27 4.69 32.87 4.29 32.38 4.29H30.54V1.15C30.54 0.52 30.03 0 29.39 0C28.75 0 28.24 0.51 28.24 1.15V4.3H26.21C25.72 4.3 25.31 4.7 25.31 5.2C25.31 5.7 25.71 6.1 26.21 6.1H26.57V13.7H22.63V16.83C22.04 16.91 21.46 17 20.87 17.1M16.58 16.52C17.99 16.49 19.39 16.67 20.78 17.07L18.63 14.63C18.38 14.34 17.99 14.23 17.62 14.33L16.82 14.55C16.15 14.73 15.87 15.52 16.27 16.09L16.58 16.52ZM12.76 17.14C13.54 16.9 14.33 16.74 15.11 16.63L14.28 15.88C13.9 15.54 13.33 15.53 12.95 15.87C12.58 16.2 12.51 16.74 12.76 17.14Z" fill="#FF9900"/>
<path fill-rule="evenodd" clip-rule="evenodd" d="M47.48 49.81C42.08 51.73 36.62 50.13 31.53 45.08C23.78 37.4 15.37 35.88 7.20002 40.65L6.02002 41.42C6.64002 43.15 7.56002 45.3 10.2 48.52V49.79C10.2 50.52 10.79 51.1 11.51 51.1H11.63V52.68H9.50002C8.77002 52.68 8.19002 53.27 8.19002 53.99V55.52C8.19002 56.25 8.78002 56.83 9.50002 56.83H8.33002C7.69002 56.83 7.14002 57.29 7.03002 57.93L6.03002 64H51.49L50.33 57.9C50.21 57.28 49.67 56.83 49.04 56.83H47.74C48.46 56.83 49.05 56.24 49.05 55.52V53.99C49.05 53.26 48.46 52.68 47.74 52.68H46.04V51.1H46.16C46.88 51.1 47.46 50.52 47.47 49.81" fill="#996698"/>
</g>
<defs>
<clipPath id="clip0_103_1021">
<rect width="58.56" height="64" fill="white"/>
</clipPath>
</defs>
</svg>
