<svg width="64" height="51" viewBox="0 0 64 51" fill="none" xmlns="http://www.w3.org/2000/svg">
<g clip-path="url(#clip0_103_997)">
<path fill-rule="evenodd" clip-rule="evenodd" d="M45.1 40.24C48.33 40.29 51.58 39.69 54.79 38.41L61.51 35.75C61.16 33.61 61.14 31.42 61.59 29.29C61.77 28.44 62 27.6 62.3 26.77C63.05 23.44 64.18 19.65 63.97 17.51C63.86 16.41 62.54 15.99 61.8 16.81C60.51 18.23 59.26 21.17 57.99 23.74C57.87 23.98 57.52 23.98 57.41 23.74C57.12 23.11 56.91 22.16 56.75 21.07C56.62 20.19 56.55 19.31 56.53 18.42L52.79 19.9C50.26 20.91 47.69 21.37 45.13 21.31C45.51 21.76 45.97 22.1 46.49 22.37C47.01 24.09 44.22 22.1 43 21.13C42.55 21.07 42.11 20.98 41.66 20.89C41.33 21.04 41.17 21.36 41.13 21.81C41.07 22.51 41.35 23.2 41.83 23.71C42.56 24.48 43.3 25.19 44.1 25.75C45.3 26.58 46.88 26.6 48.1 25.82C48.29 25.7 48.49 25.57 48.68 25.43C48.92 25.26 49.3 25.29 49.51 25.5L50.31 26.3C50.46 26.45 50.55 26.63 50.59 26.84L51.71 33.44C51.88 34.46 51.59 35.52 50.85 36.25C49.81 37.29 48.12 38.25 46.19 39.17C45.7 39.4 45.33 39.79 45.11 40.26M25.72 32.84C27.32 33.46 28.9 34.29 30.45 35.34C32.63 36.82 34.86 37.96 37.12 38.78L33.39 33.7C33.27 33.53 33.2 33.34 33.2 33.13V29.43H32.82C33.68 29.43 34.38 28.73 34.38 27.87V27.72C34.38 26.86 33.68 26.16 32.82 26.16H26.1C25.24 26.16 24.54 26.86 24.54 27.72V27.87C24.54 28.73 25.24 29.43 26.1 29.43H25.72V32.85V32.84ZM0.07 18.67L0 26C0.02 26.07 0.06 26.13 0.12 26.18C0.79 26.7 1.01 29.87 0.87 35.09C0.85 35.77 1.01 36.44 1.31 37.04L11.69 32.92C12.59 32.56 13.5 32.27 14.4 32.05C14.84 30.55 15.21 29.02 15.49 27.46C15.53 27.22 15.78 27.11 16.01 27.2C18.16 28.08 21.12 24.24 21.03 21.89C21.03 21.8 21.05 21.71 21.09 21.63C21.26 21.35 21.43 21.11 21.62 20.91C22.06 20.42 22.27 19.76 22.26 19.1L22.24 17.53C22.24 17.44 22.28 17.35 22.34 17.28C22.82 16.72 22.98 16.12 22.52 15.46C22.47 15.38 22.39 15.32 22.3 15.29C22.02 15.2 21.77 15.21 21.54 15.29C21.24 15.39 20.97 15.07 21.08 14.78C21.34 14.09 21.55 13.41 21.67 12.75C17.68 12.3 13.65 12.85 9.68 14.43L0.07 18.67Z" fill="#339999"/>
<path fill-rule="evenodd" clip-rule="evenodd" d="M61.4501 17.2L63.2101 16.47C62.7501 16.28 62.1901 16.36 61.7901 16.8C61.6801 16.92 61.5601 17.06 61.4501 17.21M45.6701 21.84C48.7901 21.84 51.9201 21.2 55.0101 19.91L56.5501 19.26C56.4501 17.45 56.5901 15.63 56.9701 13.86C56.9701 13.84 56.9701 13.82 56.9801 13.8C57.3901 11.88 57.0301 9.86001 55.9501 8.22001C55.4101 7.40001 54.7501 6.60001 53.9901 5.82001C53.9501 5.18001 53.6901 4.83001 53.2201 4.77001C53.1801 4.77001 53.1401 4.77001 53.1001 4.77001C52.6801 4.77001 52.3001 5.10001 52.2001 5.53001L50.5501 6.69001C50.1701 6.96001 49.7201 7.12001 49.2601 7.15001L48.7401 7.19001C48.3801 7.22001 48.0601 7.43001 47.8901 7.75001L47.6301 8.28001C46.7101 8.27001 46.4201 8.79001 46.4101 9.54001C46.4101 9.78001 46.6901 9.90001 46.8701 9.74001C47.2101 9.44001 47.6001 9.32001 48.0801 9.57001C48.1401 10.41 48.6401 10.75 49.4001 10.77C49.6701 10.77 49.9201 10.95 50.0001 11.21C50.7801 13.84 50.0301 18.94 48.0501 18.29C47.4701 18.1 47.0001 17.79 46.7101 17.27C46.5101 16.92 46.5101 16.51 46.5901 16.13C46.9201 14.52 44.6501 13.29 42.5101 12.04C41.9101 11.69 41.1201 11.98 40.9301 12.64C40.7701 13.19 40.8801 13.81 41.1501 14.48C41.4101 15.13 41.9201 15.66 42.5601 15.94C43.7301 16.45 44.3501 17.29 44.2901 18.51C44.2501 19.27 44.3401 20.04 44.7001 20.71C44.9501 21.18 45.2801 21.56 45.6601 21.86L45.6701 21.84ZM41.2101 21.39C42.0801 21.57 42.9601 21.69 43.8401 21.76C43.5201 21.53 43.2201 21.3 42.9801 21.11C42.7001 20.89 42.3501 20.75 42.0001 20.79C41.5801 20.83 41.3301 21.05 41.2001 21.39H41.2101ZM0.140107 15.99L0.110107 19.08L11.9101 14.13C15.1301 12.78 18.4101 12.35 21.6501 12.83C21.7601 12.25 21.8101 11.67 21.7701 11.11C21.7701 11.03 21.7801 10.96 21.8201 10.89C22.6901 9.37001 23.1901 7.90001 22.3601 6.61001C22.2801 6.49001 22.1401 6.42001 22.0001 6.43001C20.2501 6.50001 19.2701 7.51001 19.3501 9.80001C19.3501 9.86001 19.3501 9.93001 19.3201 9.98001C18.9301 11.08 18.1501 11.84 17.0601 12.32C16.9201 12.38 16.7601 12.35 16.6501 12.25L15.2401 10.97C15.1201 10.86 15.0701 10.67 15.1401 10.52C15.4401 9.91001 15.4901 9.33001 15.1801 8.80001C15.0801 8.63001 15.1101 8.41001 15.2701 8.29001C16.5801 7.31001 18.1301 6.73001 18.8901 5.77001C19.3201 5.23001 19.2801 4.45001 18.8401 3.92001C18.2101 3.15001 17.3801 2.61001 16.2701 2.40001C16.1801 2.38001 16.1001 2.34001 16.0401 2.26001L15.6001 1.69001C15.4101 1.45001 15.1201 1.31001 14.8201 1.31001H14.0701C13.9301 1.31001 13.8101 1.24001 13.7401 1.12001C13.6901 1.04001 13.6401 0.96001 13.5901 0.89001C13.1901 0.29001 12.5601 0.0100098 11.9301 0.0100098C11.1801 0.0100098 10.4301 0.42001 10.0801 1.20001V1.22001C10.0401 1.28001 9.99011 1.34001 9.94011 1.38001C8.36011 2.40001 6.75011 3.97001 5.11011 5.93001C4.65011 6.48001 4.37011 7.15001 4.31011 7.86001L4.18011 9.36001C4.18011 9.44001 4.14011 9.52001 4.09011 9.58001C2.65011 11.18 1.46011 12.97 0.520107 14.98C0.360107 15.32 0.240107 15.66 0.160107 16.02L0.140107 15.99Z" fill="#FF9900"/>
<path fill-rule="evenodd" clip-rule="evenodd" d="M14.9701 29.94C13.1501 30.28 11.3201 30.87 9.52007 31.71L0.970068 36.1C1.14007 36.82 1.50007 37.5 2.02007 38.04C2.08007 38.1 2.12007 38.18 2.13007 38.27C2.28007 39.71 1.91007 41.37 1.13007 43.22C0.920068 43.72 0.820068 44.27 0.820068 44.81V47.97C0.820068 48.85 1.53007 49.56 2.40007 49.56H2.47007C2.47007 49.56 2.52007 49.56 2.55007 49.56C4.33007 49.17 6.04007 48.93 7.45007 49.31C8.01007 49.46 8.61007 49.43 9.18007 49.31C9.75007 49.19 10.3101 49.13 10.8501 49.28C11.3601 49.42 11.8901 49.51 12.4201 49.45C13.4601 49.33 14.5201 49.28 15.6101 49.28C17.2401 49.28 17.7401 47.03 16.2301 46.4C15.7301 46.19 15.2101 46.04 14.6801 45.95C14.5001 45.92 14.3801 45.77 14.3701 45.59C14.3401 44.97 14.4801 44.23 14.6901 43.43C14.9501 42.45 14.8501 41.41 14.4001 40.51C13.9501 39.62 13.2601 38.7 12.5401 37.77C12.4501 37.66 12.4301 37.51 12.4901 37.38C13.5201 34.99 14.3501 32.51 14.9701 29.95M35.3501 36.36C34.8401 36.02 34.3401 35.66 33.8401 35.27C31.1901 33.2 28.4701 31.69 25.7001 30.75V33.11C25.7001 33.32 25.6401 33.51 25.5101 33.68L20.4501 40.58C20.3301 40.74 20.2601 40.94 20.2601 41.15V49.58H38.6101V41.15C38.6101 40.94 38.5401 40.75 38.4201 40.58L35.3301 36.37L35.3501 36.36ZM61.2901 34L52.5901 38C50.2501 39.08 47.8701 39.63 45.5101 39.64C44.9401 40.23 44.7101 41.11 44.9801 41.92C45.4701 43.4 46.5301 44.55 46.2101 46.36C46.2201 47.16 45.3001 47.39 44.0001 47.38C43.4701 47.38 42.9301 47.56 42.6001 47.97C42.2301 48.42 42.2401 48.95 42.5801 49.57C43.8701 50.06 45.1101 50.08 46.3301 49.84C47.0401 49.7 47.7701 49.77 48.4701 49.96C49.0601 50.12 49.6501 50.16 50.2501 50.05C50.7701 49.95 51.3101 49.94 51.8301 50.04C52.8201 50.21 53.5401 50.07 53.9801 49.61C54.3701 49.2 54.9501 49 55.4601 49.26C55.8201 49.44 56.2301 49.56 56.6901 49.61C58.3301 49.8 59.9001 48.97 60.8901 47.64C62.6901 45.23 62.9601 41.86 61.8901 37.65C61.5801 36.45 61.3701 35.23 61.2801 34H61.2901Z" fill="#996698"/>
</g>
<defs>
<clipPath id="clip0_103_997">
<rect width="63.99" height="50.11" fill="white"/>
</clipPath>
</defs>
</svg>
