<svg width="59" height="59" viewBox="0 0 59 59" fill="none" xmlns="http://www.w3.org/2000/svg">
<g clip-path="url(#clip0_103_1009)">
<path fill-rule="evenodd" clip-rule="evenodd" d="M41.5799 48.99C44.4599 49 47.3499 48.21 50.1999 46.62L52.3299 45.43V20.78L48.4299 22.95C46.7199 23.91 44.9899 24.49 43.2599 24.69L42.4299 47.64C42.4099 48.23 42.0599 48.73 41.5699 48.97M31.6299 45.67C34.0799 47.31 36.5799 48.34 39.0999 48.76C38.7699 48.48 38.5599 48.07 38.5599 47.6L38.2399 24.22C36.4599 23.68 34.6999 22.73 32.9799 21.39L31.6299 45.67ZM7.17993 41.78L10.8499 39.73C12.6499 38.73 14.4599 38.14 16.2699 37.96L15.5499 15.72C15.5199 14.85 16.2199 14.12 17.0999 14.12H19.4699C20.3499 14.12 21.0499 14.85 21.0199 15.73L20.2099 38.23C22.2399 38.7 24.2499 39.69 26.2099 41.2L24.9399 15.73C24.9399 15.64 24.9399 15.54 24.9599 15.45C19.7499 12.94 14.3699 13.14 9.08993 16.08L7.18993 17.27V41.79L7.17993 41.78Z" fill="#339999"/>
<path fill-rule="evenodd" clip-rule="evenodd" d="M7.18011 18.07L11.1201 15.75C15.7201 13.03 20.4401 13.19 24.9401 16.16L24.9201 15.75C24.8801 14.88 25.9501 14.15 27.2901 14.15H30.9201C32.2601 14.15 33.3401 14.88 33.2901 15.76L32.9101 22.68C34.6701 23.79 36.4501 24.57 38.2501 25.02L38.1201 15.76C38.0901 14.89 38.7901 14.16 39.6701 14.16H42.0401C42.9201 14.16 43.6201 14.89 43.5901 15.77L43.2401 25.42C45.6601 25.2 48.0801 24.39 50.4701 22.98L52.3301 21.89V15.5L53.9801 13.9C54.3201 13.38 53.9401 12.71 53.3001 12.71H52.3401V7.05001C53.2301 6.87001 54.1301 6.68001 55.0301 6.48001C55.3901 6.40001 55.6401 6.08001 55.6401 5.72001V4.72001C55.6401 4.34001 55.3601 4.01001 54.9901 3.95001C54.1101 3.80001 53.2201 3.66001 52.3401 3.52001V2.33001C52.3401 1.94001 52.0501 1.61001 51.6701 1.56001C44.2401 0.52001 36.8101 0.0100098 29.3801 0.0100098C21.9501 0.0100098 14.5201 0.52001 7.09011 1.55001C6.71011 1.60001 6.42011 1.93001 6.42011 2.32001V3.39001C5.36011 3.56001 4.31011 3.74001 3.25011 3.94001C2.88011 4.01001 2.61011 4.33001 2.61011 4.71001V5.73001C2.61011 6.09001 2.86011 6.40001 3.20011 6.49001C4.27011 6.75001 5.34011 6.99001 6.41011 7.22001V12.69H5.83011C5.16011 12.69 4.78011 13.43 5.19011 13.94L7.23011 15.48H7.17011V18.07H7.18011Z" fill="#FF9900"/>
<path fill-rule="evenodd" clip-rule="evenodd" d="M52.33 43.42L48.2 46.09C46.25 47.35 44.28 48.05 42.32 48.19C42.09 48.76 41.53 49.16 40.88 49.16H40.1C39.3 49.16 38.64 48.56 38.56 47.78C36.25 47.1 33.97 45.63 31.75 43.39L31.51 47.67C31.46 48.5 30.42 49.16 29.14 49.16H28.87C27.59 49.16 26.54 48.5 26.5 47.66L26.03 38.27C24.13 37.01 22.21 36.18 20.27 35.77L19.84 47.67C19.81 48.5 19.13 49.16 18.29 49.16H18.11C17.27 49.16 16.59 48.5 16.56 47.66L16.16 35.52C13.71 35.75 11.26 36.65 8.83 38.22L7.15 39.44V48.6H5.77C5.34 48.6 4.99 48.95 4.99 49.38V50.63H1.83C0.82 50.63 0 51.45 0 52.46V56.67C0 57.68 0.82 58.5 1.83 58.5H56.38C57.39 58.5 58.21 57.68 58.21 56.67V52.46C58.21 51.45 57.39 50.63 56.38 50.63H53.47V49.38C53.47 48.95 53.12 48.6 52.7 48.6H52.33V43.44V43.42Z" fill="#996698"/>
</g>
<defs>
<clipPath id="clip0_103_1009">
<rect width="58.21" height="58.47" fill="white"/>
</clipPath>
</defs>
</svg>
