<svg width="49" height="60" viewBox="0 0 49 60" fill="none" xmlns="http://www.w3.org/2000/svg">
<g clip-path="url(#clip0_111_1219)">
<path fill-rule="evenodd" clip-rule="evenodd" d="M13.1911 35.3989C15.7256 35.1916 18.2507 35.7004 20.7287 36.897L20.757 36.718C21.3506 34.3907 22.6791 33.1187 24.9216 33.147C25.6 33.147 26.1182 33.7971 25.9674 34.4567C25.5529 36.2563 25.8167 38.414 26.3443 40.713L27.6823 39.375C27.833 39.2243 28.0686 39.196 28.2476 39.3185L30.3393 40.713L29.774 38.4705C29.6797 38.103 30.0661 37.7921 30.4147 37.9617L32.7325 39.1206L31.4605 37.2174C31.3003 36.9724 31.4134 36.6332 31.6961 36.539L33.5334 35.9265L31.828 35.3612C31.5171 35.2576 31.4134 34.8524 31.649 34.6169L32.7325 33.5333H31.1873C30.8764 33.5333 30.7068 33.1659 30.914 32.9303C31.2156 32.5817 31.4794 32.2236 31.6678 31.8373C32.1483 30.8386 31.762 29.6702 30.801 29.1143C29.9247 28.615 28.7093 28.5679 27.1452 29.0013C28.1063 26.7211 28.9919 24.3468 29.4253 21.5578C29.6797 21.0019 29.9813 20.4648 30.311 19.9561C29.7363 19.5509 29.1615 19.0986 28.5868 18.6087C25.1571 15.6784 21.5956 13.8411 17.9869 13.1156C15.1037 15.7255 13.2005 18.8442 13.5774 23.1501C12.7482 22.8015 11.9191 22.5189 11.0805 22.3964C9.62007 22.1797 8.26329 23.2161 8.07485 24.6765C7.99947 25.2324 7.99947 25.826 7.99947 26.429C7.99947 26.8248 7.67912 27.1357 7.28339 27.1357C6.70864 27.1357 6.13389 26.9755 5.63452 26.6834L2.40274 24.7425L3.97623 26.8342C4.35311 27.3336 4.06103 28.0591 3.44859 28.1627L0.00952148 28.7375L2.49696 29.3593C2.77962 29.4253 2.855 29.7927 2.61945 29.9718L0.00952148 31.9316H3.34495C3.61819 31.9316 3.78779 32.2425 3.62761 32.4686L2.39332 34.3248L4.91844 33.0622C5.18226 32.9303 5.48377 33.1658 5.40839 33.4579L4.79595 35.9265L8.79093 31.1401C10.2231 31.3285 11.3632 30.5277 11.985 27.946L13.5774 29.5383C13.2664 31.63 13.1439 33.5804 13.2005 35.3989" fill="#339999"/>
<path fill-rule="evenodd" clip-rule="evenodd" d="M17.8267 13.2663C20.4177 13.9259 22.9617 15.3769 25.4303 17.5911C26.853 18.8819 28.304 19.9655 29.7739 20.8511C30.6502 19.2211 31.875 17.8361 33.5239 16.7619C33.4014 17.6099 33.392 18.3825 33.5051 19.0515C33.8066 20.7946 35.6062 21.7839 37.2739 21.1715C38.6307 20.6721 39.8367 19.6828 40.9297 18.326C41.3254 17.8361 41.919 17.5534 42.5409 17.5534H44.6985L44.0955 16.9504C43.9824 16.8373 43.9636 16.6583 44.0578 16.517L45.4994 14.3593L43.8882 14.8964C43.5961 14.9906 43.3417 14.6891 43.4736 14.4158L44.6985 11.9567L42.6728 13.304C42.4843 13.4265 42.2299 13.3417 42.164 13.125L41.5044 11.1558L40.5245 13.6998C40.4303 13.9447 40.1005 13.9918 39.9404 13.794L39.1112 12.7575V14.3499C39.1112 14.8681 38.9039 15.358 38.5459 15.7161L38.2821 15.9799C37.9994 16.2626 37.5189 16.0647 37.5189 15.6596V13.549C37.5942 12.2488 38.0559 11.3631 39.1677 11.1746C39.8179 11.071 40.468 10.9673 41.0899 10.7318C44.2839 9.55403 47.1294 8.0088 48.6181 5.05968C49.3436 3.62752 48.6464 1.85616 47.1388 1.30026C44.7739 0.41458 42.4749 0.141339 40.2513 0.565334C38.103 0.979907 36.1621 2.1294 34.6074 3.68405L32.0635 6.22802C31.3097 6.98179 30.2921 7.4529 29.2274 7.40579C28.4831 7.3681 28.0025 7.08543 27.946 6.35993L31.1401 5.55905L29.2839 4.93719C29.039 4.85239 28.9636 4.54146 29.152 4.36244L31.1495 2.36496L28.5208 3.0245C28.2664 3.09046 28.0308 2.85491 28.0968 2.60051L28.7563 -0.0282593L26.6081 2.11998C26.4762 2.26131 26.25 2.26131 26.1181 2.11998L24.7708 0.77262V4.0892C22.321 4.72991 20.7192 6.06785 19.664 7.8392C19.0798 8.8191 19.664 10.1288 20.7946 10.3078C21.0396 10.3455 21.3034 10.3549 21.5767 10.3549C20.2293 11.2594 18.9667 12.2111 17.8455 13.2381" fill="#FF9900"/>
<path fill-rule="evenodd" clip-rule="evenodd" d="M21.5673 34.7959C18.816 33.4579 16.0176 32.8832 13.2099 33.0811C12.8518 40.5245 15.2262 45.8951 19.9561 49.4944C25.6282 53.7532 31.9316 49.8147 38.8663 49.4378C40.9014 49.3342 42.946 50.0126 44.3122 51.5201C45.9611 53.3574 46.3757 55.9862 44.0484 57.5032C43.1062 58.1156 41.9379 58.304 40.8261 58.1344C37.745 57.6539 33.7501 56.0993 30.3298 57.4655C32.8455 57.7387 35.333 58.0308 36.9159 58.7469C37.7733 59.1332 38.6496 59.463 39.5635 59.6797C42.0604 60.2733 44.3594 60.1508 46.2061 58.4171C48.2884 56.4667 48.6276 53.2821 47.2519 50.7852C45.2356 47.12 41.5327 44.6891 32.4686 46.2061C32.1106 46.2626 31.7431 46.3191 31.3851 46.3568C23.6496 47.0446 19.6828 44.218 20.757 36.7274C20.9454 35.9736 21.2186 35.3329 21.5673 34.8053M27.8424 39.2808C27.164 38.6401 26.4856 38.0559 25.8072 37.5094C25.892 38.527 26.0805 39.6106 26.3443 40.7224L27.6822 39.3844C27.7293 39.3373 27.7859 39.2996 27.8518 39.2808H27.8424Z" fill="#996698"/>
</g>
<defs>
<clipPath id="clip0_111_1219">
<rect width="48.8913" height="60" fill="white"/>
</clipPath>
</defs>
</svg>
