<svg width="44" height="60" viewBox="0 0 44 60" fill="none" xmlns="http://www.w3.org/2000/svg">
<g clip-path="url(#clip0_111_1227)">
<path fill-rule="evenodd" clip-rule="evenodd" d="M4.96025 39.075C10.6134 36.4969 16.4071 37.5938 21.7696 42.3C27.4134 47.2407 33.4228 49.125 39.404 47.8688V35.0157C39.7509 34.6782 39.9571 34.2094 39.9571 33.6844V24.6563C34.9603 26.1563 29.8978 24.8063 25.1728 20.6625C17.8978 14.2875 10.0134 13.0125 2.36338 16.9594L2.30713 16.9875L4.40713 17.775V33.675C4.40713 34.2 4.62275 34.6688 4.96025 35.0063V39.0657V39.075Z" fill="#339999"/>
<path fill-rule="evenodd" clip-rule="evenodd" d="M3.1886 17.325L4.4636 16.6313C10.3605 13.4156 16.4355 14.4469 22.0417 19.6313C27.7792 24.9281 33.8917 26.8781 39.9667 25.425V17.7844L43.3042 16.1156C43.7355 15.9 43.7073 15.2813 43.2574 15.1031L27.7417 8.89687V5.55937L29.1667 4.84688C29.5136 4.67812 29.523 4.19063 29.1949 4.00313L22.4636 0.075C22.3792 0.028125 22.2855 0 22.1824 0C22.0792 0 21.9855 0.028125 21.9011 0.075L15.2917 3.92813C14.9074 4.15313 14.9261 4.70625 15.3199 4.90312L16.623 5.55937V8.89687L1.22923 15.5625C0.769851 15.7594 0.788601 16.4156 1.25735 16.5938L3.1886 17.3156V17.325Z" fill="#FF9900"/>
<path fill-rule="evenodd" clip-rule="evenodd" d="M39.4042 46.9219C34.5105 48.4875 29.5698 46.8937 24.9573 42.2156C18.5729 35.7469 11.7198 33.8344 4.96045 36.5625V52.1062C4.96045 56.4656 8.49482 59.9906 12.8448 59.9906H31.5104C35.8698 59.9906 39.3948 56.4562 39.3948 52.1062V46.9219H39.4042Z" fill="#996698"/>
</g>
<defs>
<clipPath id="clip0_111_1227">
<rect width="42.7125" height="60" fill="white" transform="translate(0.891602)"/>
</clipPath>
</defs>
</svg>
